<svg width="80" height="50" viewBox="0 0 80 50" xmlns="http://www.w3.org/2000/svg"><title>logo</title><ellipse cx="40.831" cy="6.952" rx="1.831" ry="1.952"/><ellipse cx="19.831" cy="37.952" rx="1.831" ry="1.952"/><ellipse cx="58.831" cy="37.952" rx="1.831" ry="1.952"/><path d="M30 40s8.923.889 17.847-.545M42.18 35.53c7.976 4.457 7.73 1.798 1.305 7.907M23 29s4-7.559 12.374-15.118m-8.207 2.876c10.533-4.015 9.5-6.081 5.628 3.654m25.483 1.862c-1.287 10.645 1.15 9.654-6.823 4.11m5.807 3.73C54.41 19.602 46 13 46 13" stroke="#000" stroke-width="3" stroke-linecap="round" fill="none"/><path d="M18.248 1.872c-5.376 0-10.368 1.632-9.744 7.488l1.008 9.216c.336 3.264-.816 4.992-7.296 4.992v3.264c6.48 0 7.632 1.776 7.296 5.088l-1.008 9.12c-.624 5.856 4.368 7.488 9.744 7.488v-3.216c-3.504 0-6.288-.816-6-3.84l.96-9.84c.432-4.224-1.104-5.808-4.464-6.432 3.312-.624 4.896-2.4 4.464-6.432l-.96-9.84c-.288-2.976 2.496-3.84 6-3.84V1.872zm43.504 0v3.216c3.504 0 6.288.864 6 3.84l-.96 9.84c-.432 4.032 1.2 5.808 4.992 6.48-3.936.576-5.424 2.16-4.992 6.384l.96 9.84c.288 3.024-2.496 3.84-6 3.84v3.216c5.376 0 10.368-1.632 9.744-7.488l-1.008-9.12c-.336-3.312 1.344-5.088 7.296-5.088v-3.264c-5.904 0-7.632-1.728-7.296-4.992l1.008-9.216c.624-5.856-4.368-7.488-9.744-7.488z"/></svg>
